<?xml version="1.0"?>
<svg xmlns="http://www.w3.org/2000/svg" height="512px" viewBox="0 0 512 512.001" width="512px" class=""><g><path d="m100 332 27.8125 55.960938 62.1875 8.972656-45 43.558594 10.621094 61.507812-55.621094-29.039062-55.621094 29.039062 10.621094-61.507812-45-43.558594 62.1875-8.972656zm0 0" fill="#fac800" data-original="#FAC800"/><path d="m191.425781 387.039062-56.996093-8.226562-25.472657-51.261719c-1.691406-3.402343-5.160156-5.550781-8.957031-5.550781s-7.265625 2.148438-8.953125 5.550781l-25.476563 51.261719-56.996093 8.226562c-3.777344.542969-6.914063 3.1875-8.085938 6.816407-1.175781 3.628906-.183593 7.613281 2.558594 10.265625l41.199219 39.882812-9.722656 56.296875c-.644532 3.746094.886718 7.539063 3.960937 9.777344 3.074219 2.242187 7.148437 2.546875 10.519531.785156l50.996094-26.621093 50.996094 26.621093c1.457031.761719 3.042968 1.136719 4.625 1.136719 2.082031 0 4.152344-.648438 5.894531-1.921875 3.074219-2.238281 4.609375-6.03125 3.960937-9.777344l-9.722656-56.296875 41.199219-39.882812c2.742187-2.652344 3.734375-6.636719 2.5625-10.265625-1.175781-3.628907-4.3125-6.273438-8.089844-6.816407zm-53.382812 46.269532c-2.375 2.300781-3.460938 5.628906-2.898438 8.886718l7.183594 41.585938-37.699219-19.683594c-1.449218-.757812-3.039062-1.136718-4.628906-1.136718s-3.175781.378906-4.628906 1.136718l-37.699219 19.683594 7.183594-41.585938c.5625-3.257812-.523438-6.585937-2.898438-8.886718l-30.359375-29.386719 42.019532-6.0625c3.253906-.46875 6.066406-2.503906 7.527343-5.445313l18.855469-37.941406 18.855469 37.9375c1.464843 2.945313 4.277343 4.980469 7.527343 5.449219l42.019532 6.0625zm0 0" data-original="#000000" class="active-path" style="fill:#F7F0F0" data-old_color="#F6EFEF"/><path d="m195.179688 165.261719c1.820312 1.570312 4.140624 2.4375 6.539062 2.4375 2.910156 0 5.660156-1.257813 7.570312-3.449219 0-.007812 0-.007812 0-.007812 3.609376-4.171876 3.148438-10.5-1.019531-14.101563-1.8125-1.582031-4.140625-2.441406-6.542969-2.441406-2.898437 0-5.648437 1.25-7.546874 3.441406-.011719 0-.011719.007813-.011719.007813-3.609375 4.171874-3.160157 10.5 1.011719 14.113281zm0 0" data-original="#000000" class="active-path" style="fill:#F7F0F0" data-old_color="#F6EFEF"/><path d="m111.140625 301.230469c1.230469.511719 2.527344.769531 3.859375.769531 4.039062 0 7.660156-2.410156 9.226562-6.140625 0 0 .042969-.117187.191407-.449219 2.070312-4.839844 21.429687-48.789062 60.199219-100.527344 3.300781-4.421874 2.398437-10.703124-2.011719-14-1.738281-1.3125-3.808594-2-5.988281-2-3.179688 0-6.101563 1.457032-8.011719 4-17.417969 23.269532-33.15625 47.757813-46.765625 72.789063-9.863282 18.140625-15.089844 30.179687-16.042969 32.398437l-.019531.070313c-1.039063 2.460937-1.050782 5.179687-.027344 7.648437 1.007812 2.480469 2.917969 4.402344 5.390625 5.441407zm0 0" data-original="#000000" class="active-path" style="fill:#F7F0F0" data-old_color="#F6EFEF"/><path d="m360.265625 48.5625c1.332031 0 2.644531-.273438 3.882813-.792969 0 0 .011718 0 .011718-.007812 5.078125-2.152344 7.457032-8.03125 5.308594-13.101563-1.570312-3.710937-5.1875-6.109375-9.210938-6.109375-1.339843 0-2.648437.269531-3.898437.800781-5.070313 2.148438-7.449219 8.03125-5.300781 13.109376 1.558594 3.699218 5.179687 6.101562 9.207031 6.101562zm0 0" data-original="#000000" class="active-path" style="fill:#F7F0F0" data-old_color="#F6EFEF"/><path d="m391.917969 33.082031c1.710937 1.25 3.808593 1.9375 5.917969 1.9375.972656 0 1.929687-.140625 2.871093-.417969 32.460938-9.679687 66.539063-14.601562 101.289063-14.601562 5.519531 0 10-4.488281 10-10s-4.480469-10-10-10h-.03125c-18.765625 0-37.507813 1.371094-55.707032 4.058594-17.308593 2.5625-34.570312 6.390625-51.28125 11.382812-5.277343 1.578125-8.289062 7.160156-6.71875 12.4375.628907 2.113282 1.898438 3.902344 3.660157 5.203125zm0 0" data-original="#000000" class="active-path" style="fill:#F7F0F0" data-old_color="#F6EFEF"/><path d="m229.046875 138.449219c2.652344 0 5.152344-1.027344 7.042969-2.890625 29.039062-28.769532 60.367187-52.558594 93.109375-70.726563 4.816406-2.683593 6.566406-8.773437 3.890625-13.601562-1.761719-3.171875-5.113282-5.148438-8.75-5.148438-1.679688 0-3.363282.4375-4.839844 1.257813-34.351562 19.0625-67.152344 43.960937-97.492188 74.011718-1.886718 1.878907-2.949218 4.378907-2.957031 7.050782-.011719 2.667968 1.019531 5.1875 2.898438 7.089844 1.890625 1.90625 4.410156 2.957031 7.097656 2.957031zm0 0" data-original="#000000" class="active-path" style="fill:#F7F0F0" data-old_color="#F6EFEF"/><path d="m326.828125 151.25c-1.601563 0-3.199219.398438-4.628906 1.140625-4.882813 2.5625-6.78125 8.609375-4.230469 13.5 1.730469 3.3125 5.128906 5.371094 8.871094 5.371094 1.628906 0 3.179687-.390625 4.628906-1.152344 4.878906-2.546875 6.78125-8.597656 4.230469-13.488281-1.730469-3.308594-5.132813-5.371094-8.871094-5.371094zm0 0" data-original="#000000" class="active-path" style="fill:#F7F0F0" data-old_color="#F6EFEF"/><path d="m300.667969 175.941406c-1.839844-2.882812-4.988281-4.601562-8.417969-4.601562-1.910156 0-3.78125.539062-5.394531 1.582031-21.988281 14.109375-43.085938 30.269531-62.695313 48.019531-15.804687 14.300782-30.703125 29.679688-44.300781 45.71875-22.441406 26.480469-34.351563 46.5625-36.511719 50.320313-.039062.070312-.066406.121093-.078125.140625-1.300781 2.328125-1.621093 5.027344-.890625 7.601562.71875 2.566406 2.410156 4.699219 4.742188 6.007813 1.488281.832031 3.167968 1.273437 4.867187 1.273437 3.621094 0 6.972657-1.960937 8.738281-5.121094 0 0 0 0 0-.011718l.082032-.140625c.472656-.820313 11.691406-20.589844 35.121094-48.070313 29.546874-34.679687 63.777343-64.589844 101.71875-88.898437 4.640624-2.980469 6-9.179688 3.019531-13.820313zm0 0" data-original="#000000" class="active-path" style="fill:#F7F0F0" data-old_color="#F6EFEF"/><path d="m502.777344 121.398438c5.5-.429688 9.617187-5.25 9.1875-10.75-.199219-2.519532-1.328125-4.859376-3.1875-6.566407-2.050782-1.890625-4.78125-2.832031-7.5625-2.621093-25.738282 2.011718-51.21875 6.058593-75.71875 12.03125-22.597656 5.5-44.898438 12.769531-66.257813 21.597656-2.472656 1.019531-4.390625 2.941406-5.421875 5.410156-1.019531 2.472656-1.019531 5.191406 0 7.648438 1.550782 3.761718 5.183594 6.191406 9.25 6.191406 1.3125 0 2.59375-.261719 3.8125-.761719 42.667969-17.636719 88.386719-28.46875 135.898438-32.179687zm0 0" data-original="#000000" class="active-path" style="fill:#F7F0F0" data-old_color="#F6EFEF"/><path d="m375.847656 247.984375c1.121094 0 2.257813-.191406 3.371094-.589844 21.195312-7.585937 43.402344-14.046875 66.015625-19.203125 5.382813-1.226562 8.753906-6.585937 7.527344-11.972656-1.230469-5.382812-6.585938-8.753906-11.972657-7.527344-23.386718 5.332032-46.371093 12.019532-68.3125 19.875-5.199218 1.859375-7.90625 7.585938-6.042968 12.785156 1.460937 4.085938 5.308594 6.632813 9.414062 6.632813zm0 0" data-original="#000000" class="active-path" style="fill:#F7F0F0" data-old_color="#F6EFEF"/><path d="m500.699219 198.007812c-6.703125.875-13.441407 1.863282-20.039063 2.929688-5.453125.882812-9.15625 6.019531-8.273437 11.472656.796875 4.910156 5.042969 8.402344 9.859375 8.402344.53125 0 1.070312-.042969 1.609375-.132812 6.398437-1.035157 12.9375-1.992188 19.4375-2.84375 5.476562-.71875 9.335937-5.738282 8.617187-11.214844-.714844-5.472656-5.738281-9.328125-11.210937-8.613282zm0 0" data-original="#000000" class="active-path" style="fill:#F7F0F0" data-old_color="#F6EFEF"/><path d="m271.554688 276.917969c-4.695313 2.910156-6.140626 9.074219-3.230469 13.769531 1.894531 3.050781 5.164062 4.730469 8.507812 4.730469 1.800781 0 3.621094-.484375 5.261719-1.503907 19.039062-11.804687 39.453125-22.554687 60.671875-31.953124 5.050781-2.238282 7.328125-8.148438 5.09375-13.195313-2.238281-5.050781-8.144531-7.328125-13.191406-5.09375-22.0625 9.769531-43.296875 20.957031-63.113281 33.246094zm0 0" data-original="#000000" class="active-path" style="fill:#F7F0F0" data-old_color="#F6EFEF"/><path d="m251.765625 301.945312c-3.308594-4.421874-9.574219-5.324218-13.996094-2.015624-35.699219 26.71875-52.859375 47.925781-53.574219 48.816406-3.449218 4.304687-2.757812 10.589844 1.542969 14.042968 1.847657 1.484376 4.058594 2.203126 6.253907 2.203126 2.925781 0 5.824218-1.273438 7.800781-3.726563.164062-.199219 16.492187-20.277344 49.960937-45.324219 4.421875-3.304687 5.324219-9.574218 2.011719-13.996094zm0 0" data-original="#000000" class="active-path" style="fill:#F7F0F0" data-old_color="#F6EFEF"/><path d="m377.265625 311.28125c-.839844 0-1.679687.109375-2.5.320312 0 0 0 0-.007813 0-2.582031.660157-4.75 2.289063-6.109374 4.589844-1.359376 2.300782-1.738282 4.988282-1.082032 7.578125 1.140625 4.421875 5.121094 7.511719 9.683594 7.511719.839844 0 1.679688-.101562 2.476562-.3125h.011719c5.339844-1.367188 8.570313-6.828125 7.199219-12.167969-1.128906-4.429687-5.109375-7.519531-9.671875-7.519531zm0 0" data-original="#000000" class="active-path" style="fill:#F7F0F0" data-old_color="#F6EFEF"/><path d="m338.828125 322.269531c-1.03125 0-2.050781.160157-3.039063.472657-18.992187 6.050781-36.5625 12.648437-52.21875 19.609374-12.621093 5.628907-24.0625 11.5-33.980468 17.480469-17.628906 10.617188-24.589844 18.019531-24.878906 18.328125-1.832032 1.941406-2.792969 4.488282-2.710938 7.160156.089844 2.660157 1.210938 5.140626 3.160156 6.96875 1.859375 1.75 4.289063 2.710938 6.839844 2.710938 2.789062 0 5.378906-1.117188 7.289062-3.148438.710938-.710937 7.359376-7.160156 23.128907-16.378906 20.902343-12.210937 47.621093-23.542968 79.441406-33.671875 2.539063-.808593 4.617187-2.558593 5.851563-4.929687 1.21875-2.378906 1.449218-5.082032.636718-7.628906-1.332031-4.171876-5.148437-6.972657-9.519531-6.972657zm0 0" data-original="#000000" class="active-path" style="fill:#F7F0F0" data-old_color="#F6EFEF"/><path d="m511.917969 296.621094c-.660157-4.960938-4.910157-8.699219-9.910157-8.699219-.429687 0-.871093.027344-1.3125.078125-30.519531 4-59.640624 8.871094-86.527343 14.472656-2.621094.546875-4.863281 2.078125-6.332031 4.308594-1.460938 2.238281-1.96875 4.910156-1.417969 7.519531.957031 4.621094 5.070312 7.972657 9.777343 7.972657.679688 0 1.371094-.082032 2.050782-.222657 26.378906-5.5 55-10.277343 85.050781-14.207031 5.460937-.722656 9.328125-5.753906 8.621094-11.222656zm0 0" data-original="#000000" class="active-path" style="fill:#F7F0F0" data-old_color="#F6EFEF"/></g> </svg>
